<svg width="28" height="62" viewBox="0 0 28 62" xmlns="http://www.w3.org/2000/svg"><path d="M26.049.904c.202-.161.555-.04 1.06.364.504.403.736.746.696 1.029-.04.04-.394.434-1.06 1.18a99.7 99.7 0 0 1-2.391 2.574l-3.391 3.633-.545 2.24c-.161.605-.303 1.15-.424 1.635-.121.484-.181.746-.181.787 0 .12.04.191.12.212.081.02.243.03.485.03.848 0 2.028.121 3.542.363 1.514.242 2.533.485 3.058.727.726.282.928.575.605.878-.323.302-1.13.575-2.422.817-1.776.363-3.976.606-6.6.727a98.85 98.85 0 0 1-7.72.06c-2.522-.08-4.762-.262-6.72-.545-1.958-.282-3.199-.625-3.723-1.03-.122-.12-.192-.211-.212-.272-.02-.06.01-.13.09-.211.404-.485 1.696-.878 3.875-1.181 2.18-.303 5.167-.495 8.961-.575l4.057-.06 1.453-5.692 3.633-3.815c.969-1.05 1.826-1.957 2.573-2.724.747-.767 1.14-1.15 1.18-1.15zM.438 17.676v-.303l.908.303c.484.161 1.261.323 2.33.484 1.07.162 2.23.303 3.482.424.646.08 1.635.131 2.967.151 1.332.02 2.725.03 4.178.03 1.453 0 2.845-.02 4.177-.06 1.333-.04 2.342-.1 3.028-.182a50.78 50.78 0 0 0 3.27-.423c.968-.162 1.695-.323 2.179-.485.161-.08.313-.141.454-.181.141-.04.212-.04.212 0l-.242 2.36a906.704 906.704 0 0 1-.606 5.692c-.323 2.947-.555 5.046-.696 6.297-.141 1.252-.252 1.918-.333 1.998-.242.283-.726.707-1.453 1.272-.727.565-1.15.847-1.272.847a.67.67 0 0 1-.211-.03c-.061-.02-.091-.05-.091-.09 0-.041.06-.152.181-.334.121-.181.283-.373.485-.575.525-.605.908-1.13 1.15-1.574.242-.444.363-.807.363-1.09 0-.242-.02-.414-.06-.515-.04-.1-.141-.191-.303-.272a1.387 1.387 0 0 0-1.15-.212c-.404.1-.848.373-1.332.817a5.442 5.442 0 0 1-.364.333c-.12.101-.201.152-.242.152v-.424c.04-.162.05-.283.03-.363-.02-.081-.09-.142-.211-.182-.243-.121-.454-.07-.636.151-.182.222-.394.697-.636 1.423-.08.242-.192.454-.333.636-.141.182-.414.434-.817.757-.404.363-.787.666-1.15.908-.364.242-.626.363-.788.363-.04 0-.07-.03-.09-.09a.918.918 0 0 1-.03-.273c0-.121.302-.979.907-2.573a91.716 91.716 0 0 1 1.817-4.45 7.19 7.19 0 0 0 .393-.939c.101-.303.152-.494.152-.575a.808.808 0 0 0-.152-.212.69.69 0 0 0-.272-.151.552.552 0 0 0-.303-.03c-.08.02-.182.09-.303.211-.12.121-.666 1.383-1.634 3.784-.97 2.402-1.554 3.906-1.756 4.511-.04.162-.202.333-.485.515-.282.181-.524.292-.726.333-.162 0-.263-.03-.303-.091-.04-.06-.06-.212-.06-.454 0-.202.05-.464.15-.787.102-.323.253-.727.455-1.211.242-.565.394-.969.454-1.211.06-.242.07-.424.03-.545-.08-.202-.201-.313-.363-.333a.488.488 0 0 0-.424.151c-.08.081-.171.222-.272.424-.101.202-.192.424-.273.666-.323.848-.716 1.564-1.18 2.15-.465.585-.898.938-1.302 1.06-.404.12-.595-.051-.575-.515.02-.465.272-1.181.757-2.15.282-.605.444-1.02.484-1.241.04-.222-.02-.394-.182-.515-.323-.161-.646.01-.968.515-.323.504-.687 1.362-1.09 2.573-.242.686-.364 1.241-.364 1.665 0 .424.101.717.303.878.363.242.807.293 1.332.152.525-.142 1.03-.434 1.514-.878l.484-.545v.484c0 .525.152.848.454.969.303.12.757.02 1.363-.303.363-.202.575-.313.635-.333.06-.02.091.03.091.151 0 .122.101.243.303.364.202.12.424.181.666.181.202 0 .484-.08.848-.242a4.075 4.075 0 0 0 1.029-.666c.161-.121.293-.222.393-.303.101-.08.152-.1.152-.06l-.242.545c-.162.363-.364.787-.606 1.271a25.631 25.631 0 0 0-.817 1.877c-.182.485-.273.807-.273.969 0 .08.071.182.212.303.142.12.273.181.394.181.202 0 .403-.14.605-.423.202-.283.404-.707.606-1.272.282-.767.635-1.645 1.06-2.634.423-.989.736-1.645.938-1.968.08-.161.202-.343.363-.544.162-.202.303-.384.424-.545a3.272 3.272 0 0 1 1.21-.939c.485-.222.727-.192.727.091 0 .121-.07.283-.212.484-.14.202-.474.626-.999 1.272-.444.565-.736.989-.877 1.271-.142.283-.172.545-.091.787.08.202.202.344.363.424.161.081.404.121.727.121.363 0 .726-.09 1.09-.272.363-.182.787-.474 1.27-.878.203-.202.394-.363.576-.484l.273-.182-.182 1.665c-.121 1.11-.262 2.432-.424 3.966-.363 3.148-.605 4.914-.726 5.298-.122.383-.505.696-1.15.938-.445.162-1.09.343-1.938.545-.848.202-1.696.363-2.543.484-1.01.162-2.624.243-4.844.243s-3.835-.081-4.844-.243a33.18 33.18 0 0 1-3.602-.756c-1.11-.303-1.766-.576-1.968-.818-.04-.08-.212-1.534-.515-4.36-.303-2.825-.454-4.48-.454-4.964 0-.121.01-.192.03-.212.02-.02.091-.01.212.03.323.202.767.192 1.332-.03.565-.222 1.15-.616 1.756-1.18.242-.243.434-.414.575-.515.142-.101.212-.111.212-.03-.04.08-.11.272-.212.575-.1.302-.191.635-.272.999-.162.565-.262.958-.303 1.18-.04.222-.02.394.06.515.081.202.203.303.364.303.161 0 .303-.101.424-.303.04-.04.11-.192.212-.454.1-.262.191-.535.272-.817.363-1.252.666-2.23.908-2.937.243-.706.444-1.322.606-1.847.121-.363.212-.676.272-.938.06-.263.091-.495.091-.696-.04-.243-.08-.394-.12-.455-.041-.06-.142-.11-.304-.15-.08 0-.171.01-.272.03-.101.02-.172.05-.212.09-.04.04-.121.182-.242.424a4.145 4.145 0 0 0-.303.848c-.161.484-.313.857-.454 1.12a7.024 7.024 0 0 1-.636.938c-.444.525-.918.99-1.423 1.393-.504.403-.878.605-1.12.605-.686 0-.928-.666-.726-1.998.201-1.332.746-2.724 1.634-4.177.808-1.413 1.575-2.301 2.301-2.665.727-.363 1.312-.161 1.756.606.162.323.323.545.484.666.162.121.323.141.485.06.282-.161.393-.433.333-.817-.06-.383-.293-.757-.696-1.12-.364-.363-.717-.605-1.06-.727-.343-.12-.737-.12-1.18 0-.93.202-1.868.868-2.816 1.998-.949 1.13-1.685 2.463-2.21 3.997l-.182.363c-.04.08-.08.1-.12.06 0-.04-.082-.797-.243-2.27a806.8 806.8 0 0 1-.515-4.844c-.181-1.756-.353-3.38-.514-4.874-.162-1.493-.243-2.28-.243-2.361zM4.07 47.707l.182.03c.121.02.283.07.484.152 1.211.403 2.866.736 4.965.999 2.1.262 3.936.353 5.51.272a44.421 44.421 0 0 0 4.268-.454c1.433-.222 2.554-.474 3.36-.757a8.52 8.52 0 0 1 .606-.181c.162-.04.242-.04.242 0l-.242.423c-.161.283-.343.626-.545 1.03l-.787 1.332-.302 4.904-.243 4.965-.423.303c-.485.444-1.423.777-2.816.999-1.392.222-3.058.312-4.995.272-1.695-.04-3.088-.161-4.178-.363-1.09-.202-1.857-.505-2.3-.908l-.364-.303-.363-4.904-.363-4.844-.848-1.453a24.64 24.64 0 0 1-.606-1.06l-.242-.454z" fill="#333" fill-rule="evenodd"/></svg>