<svg xmlns="http://www.w3.org/2000/svg" width="366" height="75" viewBox="0 0 366 75" xmlns:xlink="http://www.w3.org/1999/xlink"><defs><path id="a" d="M0 3h72v72H0z"/><mask id="e" width="72" height="72" x="0" y="0" fill="#fff"><use xlink:href="#a"/></mask><path id="b" d="M187 1h72v72h-72z"/><mask id="f" width="72" height="72" x="0" y="0" fill="#fff"><use xlink:href="#b"/></mask><path id="c" d="M294 1h72v72h-72z"/><mask id="g" width="72" height="72" x="0" y="0" fill="#fff"><use xlink:href="#c"/></mask><path id="d" d="M94 0h72v72H94z"/><mask id="h" width="72" height="72" x="0" y="0" fill="#fff"><use xlink:href="#d"/></mask></defs><g fill="none" fill-rule="evenodd"><use stroke="#979797" stroke-width="2" mask="url(#e)" xlink:href="#a"/><path fill="#333" d="M56.75 60.5V31.25L59 29v33.75H14V20h36l-2.25 2.25h-31.5V60.5h40.5zM38.469 41.937l24.047-24.046 1.547 1.547L38.75 44.75h-4.5v-4.5l25.313-25.313 1.546 1.547-24.047 24.047 1.407 1.407zM67.437 13.25c.376.563.563 1.031.563 1.406s-.187.844-.563 1.406L65.75 17.75l-4.5-4.5 1.688-1.688c.562-.375 1.03-.562 1.406-.562.375 0 .843.187 1.406.563l1.688 1.687z"/><use fill="#D8D8D8" stroke="#979797" stroke-width="2" mask="url(#f)" xlink:href="#b"/><path fill="#333" d="M234.049 5.904c.202-.161.555-.04 1.06.364.504.403.736.746.696 1.029-.04.04-.394.434-1.06 1.18a99.7 99.7 0 0 1-2.391 2.574l-3.391 3.633-.545 2.24c-.161.605-.303 1.15-.424 1.635-.121.484-.181.746-.181.787 0 .12.04.191.12.212.081.02.243.03.485.03.848 0 2.028.121 3.542.363 1.514.242 2.533.485 3.058.727.726.282.928.575.605.878-.323.302-1.13.575-2.422.817-1.776.363-3.976.606-6.6.727a98.85 98.85 0 0 1-7.72.06c-2.522-.08-4.762-.262-6.72-.545-1.958-.282-3.199-.625-3.724-1.03-.12-.12-.191-.211-.211-.272-.02-.06.01-.13.09-.211.404-.485 1.696-.878 3.875-1.181 2.18-.303 5.167-.495 8.961-.575l4.057-.06 1.453-5.692 3.633-3.815c.969-1.05 1.826-1.957 2.573-2.724.747-.767 1.14-1.15 1.18-1.15zm-25.612 16.772v-.303l.909.303c.484.161 1.261.323 2.33.484 1.07.162 2.23.303 3.482.424.646.08 1.635.131 2.967.151 1.332.02 2.725.03 4.178.03 1.453 0 2.845-.02 4.177-.06 1.333-.04 2.342-.1 3.028-.182a50.78 50.78 0 0 0 3.27-.423c.968-.162 1.695-.323 2.179-.485.161-.08.313-.141.454-.181.141-.04.212-.04.212 0l-.242 2.36a906.704 906.704 0 0 1-.606 5.692c-.323 2.947-.555 5.046-.696 6.297-.141 1.252-.252 1.918-.333 1.998-.242.283-.726.707-1.453 1.272-.727.565-1.15.847-1.272.847a.67.67 0 0 1-.211-.03c-.061-.02-.091-.05-.091-.09 0-.041.06-.152.181-.334.121-.181.283-.373.485-.575.525-.605.908-1.13 1.15-1.574.242-.444.363-.807.363-1.09 0-.242-.02-.414-.06-.515-.04-.1-.141-.191-.303-.272a1.387 1.387 0 0 0-1.15-.212c-.404.1-.848.373-1.332.817a5.442 5.442 0 0 1-.364.333c-.12.101-.201.152-.242.152v-.424c.04-.162.05-.283.03-.363-.02-.081-.09-.142-.211-.182-.243-.121-.454-.07-.636.151-.182.222-.394.697-.636 1.423-.08.242-.192.454-.333.636-.141.182-.414.434-.817.757-.404.363-.787.666-1.15.908-.364.242-.626.363-.788.363-.04 0-.07-.03-.09-.09a.918.918 0 0 1-.03-.273c0-.121.302-.979.907-2.573a91.716 91.716 0 0 1 1.817-4.45 7.19 7.19 0 0 0 .393-.939c.101-.303.152-.494.152-.575a.808.808 0 0 0-.152-.212.69.69 0 0 0-.272-.151.552.552 0 0 0-.303-.03c-.08.02-.182.09-.303.211-.12.121-.666 1.383-1.634 3.784-.97 2.402-1.554 3.906-1.756 4.511-.04.162-.202.333-.485.515-.282.181-.524.292-.726.333-.162 0-.263-.03-.303-.091-.04-.06-.06-.212-.06-.454 0-.202.05-.464.15-.787.102-.323.253-.727.455-1.211.242-.565.394-.969.454-1.211.06-.242.07-.424.03-.545-.08-.202-.201-.313-.363-.333a.488.488 0 0 0-.424.151c-.08.081-.171.222-.272.424-.101.202-.192.424-.273.666-.323.848-.716 1.564-1.18 2.15-.465.585-.898.938-1.302 1.06-.404.12-.595-.051-.575-.515.02-.465.272-1.181.757-2.15.282-.605.444-1.02.484-1.241.04-.222-.02-.394-.182-.515-.323-.161-.646.01-.968.515-.323.504-.687 1.362-1.09 2.573-.242.686-.364 1.241-.364 1.665 0 .424.101.717.303.878.363.242.807.293 1.332.152.525-.142 1.03-.434 1.514-.878l.484-.545v.484c0 .525.152.848.454.969.303.12.757.02 1.363-.303.363-.202.575-.313.635-.333.06-.02.091.03.091.151 0 .122.101.243.303.364.202.12.424.181.666.181.202 0 .484-.08.848-.242a4.075 4.075 0 0 0 1.029-.666c.161-.121.293-.222.393-.303.101-.08.152-.1.152-.06l-.242.545c-.162.363-.364.787-.606 1.271a25.631 25.631 0 0 0-.817 1.877c-.182.485-.273.807-.273.969 0 .08.071.182.212.303.142.12.273.181.394.181.202 0 .403-.14.605-.423.202-.283.404-.707.606-1.272.282-.767.635-1.645 1.06-2.634.423-.989.736-1.645.938-1.968.08-.161.202-.343.363-.544.162-.202.303-.384.424-.545a3.272 3.272 0 0 1 1.21-.939c.485-.222.727-.192.727.091 0 .121-.07.283-.212.484-.14.202-.474.626-.999 1.272-.444.565-.736.989-.877 1.271-.142.283-.172.545-.091.787.08.202.202.344.363.424.161.081.404.121.727.121.363 0 .726-.09 1.09-.272.363-.182.787-.474 1.27-.878.203-.202.394-.363.576-.484l.273-.182-.182 1.665c-.121 1.11-.262 2.432-.424 3.966-.363 3.148-.605 4.914-.726 5.298-.122.383-.505.696-1.15.938-.445.162-1.09.343-1.938.545-.848.202-1.696.363-2.543.484-1.01.162-2.624.243-4.844.243s-3.835-.081-4.844-.243a33.18 33.18 0 0 1-3.602-.756c-1.11-.303-1.766-.576-1.968-.818-.04-.08-.212-1.534-.515-4.36-.303-2.825-.454-4.48-.454-4.964 0-.121.01-.192.03-.212.02-.02.091-.01.212.03.323.202.767.192 1.332-.03.565-.222 1.15-.616 1.756-1.18.242-.243.434-.414.575-.515.142-.101.212-.111.212-.03-.04.08-.11.272-.212.575-.1.302-.191.635-.272.999-.162.565-.262.958-.303 1.18-.04.222-.02.394.06.515.081.202.203.303.364.303.161 0 .303-.101.424-.303.04-.04.11-.192.212-.454.1-.262.191-.535.272-.817.363-1.252.666-2.23.908-2.937.243-.706.444-1.322.606-1.847.121-.363.212-.676.272-.938.06-.263.091-.495.091-.696-.04-.243-.08-.394-.12-.455-.041-.06-.142-.11-.304-.15-.08 0-.171.01-.272.03-.101.02-.172.05-.212.09-.04.04-.121.182-.242.424a4.145 4.145 0 0 0-.303.848c-.161.484-.313.857-.454 1.12a7.024 7.024 0 0 1-.636.938c-.444.525-.918.99-1.423 1.393-.504.403-.878.605-1.12.605-.686 0-.928-.666-.726-1.998.201-1.332.746-2.724 1.634-4.177.808-1.413 1.575-2.301 2.301-2.665.727-.363 1.312-.161 1.756.606.162.323.323.545.484.666.162.121.323.141.485.06.282-.161.393-.433.333-.817-.06-.383-.293-.757-.696-1.12-.364-.363-.717-.605-1.06-.727-.343-.12-.737-.12-1.18 0-.93.202-1.868.868-2.816 1.998-.949 1.13-1.685 2.463-2.21 3.997l-.182.363c-.04.08-.08.1-.12.06 0-.04-.082-.797-.243-2.27a806.8 806.8 0 0 1-.515-4.844c-.181-1.756-.353-3.38-.514-4.874-.162-1.493-.243-2.28-.243-2.361zm3.633 30.031l.182.03c.121.02.283.07.484.152 1.211.403 2.866.736 4.965.999 2.1.262 3.936.353 5.51.272a44.421 44.421 0 0 0 4.268-.454c1.433-.222 2.554-.474 3.36-.757a8.52 8.52 0 0 1 .606-.181c.162-.04.243-.04.243 0l-.243.423c-.161.283-.343.626-.545 1.03l-.787 1.332-.302 4.904-.243 4.965-.423.303c-.485.444-1.423.777-2.816.999-1.392.222-3.058.312-4.995.272-1.695-.04-3.088-.161-4.178-.363-1.09-.202-1.857-.505-2.3-.908l-.364-.303-.363-4.904-.363-4.844-.848-1.453a24.64 24.64 0 0 1-.606-1.06l-.242-.454z"/><use fill="#D8D8D8" stroke="#979797" stroke-width="2" mask="url(#g)" xlink:href="#c"/><path fill="#333" d="M361.334 45.865h-.06c.04.04.05.06.03.06-.02 0 .01.021.09.061v.787c-.08.04-.11.061-.09.061.02 0 .01.02-.03.06a3.116 3.116 0 0 1-.545 1.605 4.498 4.498 0 0 1-1.211 1.18 3.012 3.012 0 0 1-.636.394c-.222.101-.454.152-.696.152-.04 0-.091-.01-.152-.03-.06-.02-.09-.051-.09-.091s.01-.091.03-.152c.02-.06.03-.11.03-.151a.949.949 0 0 1 .242-.182l.242-.121c.767-.525 1.252-1.16 1.453-1.907.202-.747.101-1.524-.302-2.331a5.1 5.1 0 0 0-1.272-1.635 5.74 5.74 0 0 0-1.816-1.03 11.6 11.6 0 0 0-3.542-.756c-1.191-.06-2.392.05-3.603.333-.202.04-.424.1-.666.182-.242.08-.464.161-.666.242.04.161.091.333.152.514.06.182.11.354.151.515.161.605.212 1.2.151 1.786-.06.585-.292 1.14-.696 1.665a7.528 7.528 0 0 1-2.089 1.847 8.644 8.644 0 0 1-2.573.999c-.444.121-.828.05-1.15-.212-.323-.262-.505-.616-.545-1.06a2.773 2.773 0 0 1 0-.817c.04-.262.1-.535.181-.817.202-.606.485-1.17.848-1.696.363-.524.767-1.029 1.21-1.513l.606-.606c.202-.202.424-.403.666-.605a10.798 10.798 0 0 1-1.06-2.301 21.429 21.429 0 0 1-.635-2.422l-.09.09c-.021.021-.031.051-.031.092a56.485 56.485 0 0 1-1.544 2.876 30.574 30.574 0 0 1-1.786 2.755 4.26 4.26 0 0 0-.091.302c-.02.081-.01.182.03.303.081.242.172.484.273.727.1.242.171.484.212.726.201.929.161 1.786-.121 2.573-.283.787-.808 1.464-1.575 2.029a8.466 8.466 0 0 1-1.907 1.06 6.8 6.8 0 0 1-2.15.453c-.201.04-.413.05-.635.03a9.442 9.442 0 0 1-.696-.09.747.747 0 0 1-.545-.363.831.831 0 0 1-.121-.606c.04-.121.08-.232.12-.333.041-.1.081-.212.122-.333.08-.161.181-.313.303-.454a8.94 8.94 0 0 0 .363-.454 744.162 744.162 0 0 1 3.27-3.996c.12-.162.191-.303.211-.424.02-.121-.03-.283-.151-.484a32.863 32.863 0 0 1-.575-1.211 8.62 8.62 0 0 1-.454-1.272 22.431 22.431 0 0 1-.333-1.09c-.101-.363-.192-.746-.273-1.15l-.09.182c-.02.04-.03.1-.03.181a60.74 60.74 0 0 0-1.272 2.846 60.74 60.74 0 0 1-1.272 2.846 50.483 50.483 0 0 1-1.302 2.543c-.464.847-.938 1.695-1.422 2.543a4.396 4.396 0 0 1-.576.877 5.67 5.67 0 0 1-.696.697 3.557 3.557 0 0 1-.545.333c-.202.1-.424.13-.666.09a1.305 1.305 0 0 1-.787-.363 2.173 2.173 0 0 1-.484-.787 4.26 4.26 0 0 1-.243-1.03 4.92 4.92 0 0 1 0-1.089c0-.242.01-.484.03-.727.02-.242.051-.504.092-.787a.7.7 0 0 1-.091.152c-.02.02-.03.05-.03.09a62.348 62.348 0 0 1-1.575 3.391c-.08.202-.192.404-.333.606-.141.201-.292.403-.454.605-.404.525-.969.787-1.695.787-.727 0-1.272-.282-1.635-.847a6.591 6.591 0 0 1-1.06-2.09 12.54 12.54 0 0 1-.454-2.33c-.04-.767 0-1.514.121-2.24.122-.727.283-1.454.485-2.18 0-.081.02-.172.06-.273.04-.1.081-.212.121-.333h-.06c-.565.283-1.12.586-1.665.908-.545.323-1.1.646-1.665.97.04.12.08.221.12.302l.122.242c0 .08.02.162.06.242.04.081.061.162.061.243.283.888.424 1.786.424 2.694 0 .908-.121 1.806-.363 2.694-.283 1.251-.767 2.362-1.453 3.33a10.414 10.414 0 0 1-2.604 2.543c-.686.444-1.403.808-2.15 1.09a9.122 9.122 0 0 1-2.33.545h-1.454a4.601 4.601 0 0 0-.756-.182c-.263-.04-.535-.08-.818-.12-.08-.041-.171-.092-.272-.152s-.192-.111-.273-.151a5.191 5.191 0 0 1-.666-.666 2.904 2.904 0 0 1-.484-.848c-.404-1.01-.525-1.988-.363-2.937.161-.948.524-1.867 1.09-2.755a6.818 6.818 0 0 1 1.21-1.453 40.91 40.91 0 0 1 1.454-1.271 30.913 30.913 0 0 1 2.664-1.817 39.11 39.11 0 0 1 2.845-1.574c.081-.04.172-.09.273-.151.1-.06.212-.111.333-.152a5.442 5.442 0 0 0-.364-.333 4.259 4.259 0 0 0-.363-.272c-.726-.525-1.463-1.05-2.21-1.574l-2.15-1.514a37.876 37.876 0 0 1-2.451-1.907 22.227 22.227 0 0 1-2.21-2.15 15.418 15.418 0 0 1-1.211-1.786 8.916 8.916 0 0 1-.848-1.967c0-.122-.01-.243-.03-.364a.542.542 0 0 0-.152-.302v-.848c.081-.04.111-.07.091-.09-.02-.021-.01-.051.03-.092.04-.282.101-.575.182-.878.08-.302.162-.615.242-.938.364-.969.828-1.887 1.393-2.755a17.238 17.238 0 0 1 1.937-2.452 26.196 26.196 0 0 1 4.693-4.027 48.775 48.775 0 0 1 5.358-3.118 33.038 33.038 0 0 1 2.573-1.21 46.756 46.756 0 0 1 2.695-1.03 24.6 24.6 0 0 1 3.602-1.06 21.093 21.093 0 0 1 3.724-.454h2.059c1.05.04 2.078.172 3.087.394 1.01.222 1.978.575 2.907 1.06.646.363 1.23.777 1.756 1.24.524.465.948 1.02 1.271 1.666.323.605.525 1.23.606 1.877a8.27 8.27 0 0 1 0 1.998 9.822 9.822 0 0 1-1.09 3.723 16.59 16.59 0 0 1-2.24 3.24c-1.09 1.21-2.301 2.2-3.633 2.966a19.376 19.376 0 0 1-4.3 1.817c-1.089.282-2.179.504-3.269.666-1.09.161-2.2.222-3.33.182a12.96 12.96 0 0 1-2.21-.303 6.572 6.572 0 0 1-2.028-.848 6.026 6.026 0 0 1-.908-.696 3.76 3.76 0 0 1-.727-.939 2.44 2.44 0 0 1-.212-.393 2.995 2.995 0 0 1-.151-.454.413.413 0 0 1-.03-.273c.02-.1.07-.171.151-.212.121-.04.212-.04.272 0 .061.04.111.081.152.121.282.364.605.656.969.878a7.65 7.65 0 0 0 1.15.576 7.496 7.496 0 0 0 1.937.454c.646.06 1.292.07 1.938.03a23.56 23.56 0 0 0 2.392-.363 16.084 16.084 0 0 0 2.33-.666 17.711 17.711 0 0 0 3.755-1.756 15.434 15.434 0 0 0 3.209-2.664 10.727 10.727 0 0 0 1.574-1.998 8.092 8.092 0 0 0 .968-2.362c.081-.403.122-.817.122-1.24 0-.425-.061-.859-.182-1.303a2.819 2.819 0 0 0-.696-1.029 5.06 5.06 0 0 0-1-.727 6.186 6.186 0 0 0-1.513-.635 8.642 8.642 0 0 0-1.635-.273 17.007 17.007 0 0 0-4.178.03 25.505 25.505 0 0 0-4.056.878 31.797 31.797 0 0 0-3.784 1.454 68.564 68.564 0 0 0-3.663 1.816c-.848.484-1.676.989-2.483 1.514a31.622 31.622 0 0 0-2.361 1.695 43.916 43.916 0 0 0-1.998 1.877 11.26 11.26 0 0 0-1.696 2.18 8.303 8.303 0 0 0-.847 1.937 6.23 6.23 0 0 0-.242 2.12c.04.564.15 1.1.333 1.604.181.504.434.999.756 1.483.444.606.949 1.17 1.514 1.696.565.524 1.13 1.009 1.695 1.453.687.565 1.363 1.11 2.029 1.634.666.525 1.322 1.05 1.967 1.575.202.201.404.393.606.575.202.181.404.373.605.575.283-.121.555-.252.818-.394.262-.14.514-.292.757-.454a71.931 71.931 0 0 0 4.238-2.3c.08-.04.151-.091.212-.152l.151-.151a12.077 12.077 0 0 1 1.786-1.877 7.969 7.969 0 0 1 2.21-1.332 3.557 3.557 0 0 1 1.271-.242c.445 0 .828.12 1.151.363.323.242.545.585.666 1.03.08.322.121.665.121 1.029 0 .363-.02.726-.06 1.09 0 .04-.01.09-.03.15a.67.67 0 0 0-.03.213c.04-.04.08-.071.12-.091.04-.02.081-.03.121-.03.202-.202.475-.283.818-.243.343.04.615.182.817.424a.55.55 0 0 1 .182.394c0 .141-.02.292-.06.454-.122.484-.243.959-.364 1.423-.121.464-.242.938-.363 1.423a26 26 0 0 0-.424 1.695l-.363 1.695c-.04.202-.05.404-.03.606.02.201.03.403.03.605v.121c0 .04.02.08.06.121a.949.949 0 0 0 .182-.242c.04-.08.1-.161.181-.242.162-.283.323-.585.485-.908.161-.323.303-.646.424-.969l4.117-9.203c.161-.363.303-.747.424-1.15l.363-1.211c.04-.122.09-.233.151-.333.06-.101.172-.172.333-.212a6.444 6.444 0 0 1 1.272-.243c.444-.04.888-.02 1.332.061.04 0 .1.02.181.06l.243.122c.161.08.252.161.272.242.02.08.01.202-.03.363a18.33 18.33 0 0 0-.606 1.938 5.92 5.92 0 0 0-.09 1.332c.02.444.07.888.15 1.332.041.403.142.777.304 1.12.161.343.343.696.545 1.06.04-.081.09-.172.15-.273.061-.101.132-.192.213-.273.484-.888.969-1.766 1.453-2.633.484-.868.949-1.766 1.393-2.695.161-.323.292-.676.393-1.06.101-.383.212-.776.333-1.18.04-.08.07-.161.09-.242.021-.08.051-.182.092-.303 0-.161.05-.282.151-.363.101-.08.232-.141.394-.182a6.43 6.43 0 0 1 1.24-.242c.425-.04.838-.02 1.242.06.08 0 .151.01.212.03.06.021.131.051.212.092.161.08.262.171.303.272.04.101.04.252 0 .454-.121.364-.232.717-.333 1.06-.101.343-.192.696-.273 1.06-.08.363-.11.726-.09 1.09.02.362.05.746.09 1.15.08.524.232 1.009.454 1.453.222.444.434.908.636 1.392.04.04.08.091.121.152.04.06.06.11.06.151.243-.08.465-.172.667-.272.201-.101.423-.192.666-.273a15.616 15.616 0 0 1 4.722-.726c.97.04 1.918.201 2.846.484a7.146 7.146 0 0 1 2.543 1.392 7.217 7.217 0 0 1 1.695 1.817c.444.686.727 1.473.848 2.361zm-47.227 3.27c.04-.444.03-.888-.03-1.332-.06-.444-.151-.888-.272-1.332l-.03.03c-.02.02-.051.03-.091.03-.767.444-1.524.919-2.27 1.423a40.864 40.864 0 0 0-2.21 1.605 17.2 17.2 0 0 0-1.272 1.15 5.933 5.933 0 0 0-1.03 1.393 6.95 6.95 0 0 0-.514 1.18 4.09 4.09 0 0 0-.212 1.302c0 .283.05.545.151.787.101.242.313.444.636.606.202.08.414.12.636.12.222 0 .434-.02.635-.06a4.915 4.915 0 0 0 1.696-.545 7.293 7.293 0 0 0 1.453-1.03 7.872 7.872 0 0 0 1.907-2.36c.464-.888.737-1.877.817-2.967zm12.17-9.385c.04-.202.01-.343-.09-.424-.101-.08-.253-.1-.455-.06-.161.04-.302.09-.423.151-.122.06-.243.131-.364.212a3.518 3.518 0 0 0-.999.878 20.08 20.08 0 0 0-.757 1.06 13.7 13.7 0 0 0-1.332 2.875 9.982 9.982 0 0 0-.484 3.119v.484c0 .161.02.303.06.424.041.242.091.474.152.696.06.222.131.434.212.636.08.202.182.303.303.303.12 0 .242-.061.363-.182l.182-.182a3.13 3.13 0 0 1 .302-.575c.121-.182.242-.373.364-.575.484-1.13.938-2.25 1.362-3.36.424-1.11.817-2.25 1.18-3.421.081-.323.162-.656.243-1 .08-.343.141-.696.181-1.059zm8.356 10.596c.444.202 1.07-.162 1.877-1.09.807-.929 1.17-1.716 1.09-2.361l-1.484 1.725c-.504.585-.999 1.16-1.483 1.726zm9.506-2.362a3.038 3.038 0 0 0 1.453-1.634 2.908 2.908 0 0 0 0-2.18h-.06a6.664 6.664 0 0 0-1.393 1.635 8.049 8.049 0 0 0-.848 1.998c-.04.04-.06.09-.06.151v.212c0 .08.02.141.06.182.04.04.1.04.182 0 .12-.081.242-.142.363-.182a.76.76 0 0 0 .303-.182z"/><use fill="#D8D8D8" stroke="#979797" stroke-width="2" mask="url(#h)" xlink:href="#d"/><path fill="#333" d="M106.507 32.429l19.12 20.41-9.207-20.41h-9.913zm24.922 23.694l10.711-23.694h-21.423l10.712 23.694zM116.512 28.5l6.261-11.786h-8.04l-8.84 11.786h10.62zm20.717 24.339l19.122-20.41h-9.914l-9.208 20.41zM120.963 28.5h20.932l-6.262-11.786h-8.41l-6.26 11.786zm25.382 0h10.62l-8.84-11.786h-8.041l6.26 11.786zm4.327-14.916l11.786 15.714c.583.737.522 1.81-.123 2.517l-29.464 31.428c-.368.4-.89.614-1.442.614a1.947 1.947 0 0 1-1.443-.614l-29.464-31.428c-.645-.706-.706-1.78-.123-2.517l11.786-15.714a1.893 1.893 0 0 1 1.565-.798h35.357c.614 0 1.197.276 1.565.798z"/></g></svg>