<svg xmlns="http://www.w3.org/2000/svg" width="62" height="47" viewBox="0 0 62 47"><path fill="#333" fill-rule="evenodd" d="M61.334 32.865h-.06c.04.04.05.06.03.06-.02 0 .01.021.09.061v.787c-.08.04-.11.061-.09.061.02 0 .01.02-.03.06a3.116 3.116 0 0 1-.545 1.605 4.498 4.498 0 0 1-1.211 1.18 3.012 3.012 0 0 1-.636.394 1.663 1.663 0 0 1-.696.152.51.51 0 0 1-.152-.03c-.06-.02-.09-.051-.09-.091s.01-.091.03-.152c.02-.06.03-.11.03-.151a.949.949 0 0 1 .242-.182l.242-.121c.767-.525 1.252-1.16 1.453-1.907.202-.747.101-1.524-.302-2.331a5.1 5.1 0 0 0-1.272-1.635 5.74 5.74 0 0 0-1.816-1.03 11.6 11.6 0 0 0-3.542-.756 12.91 12.91 0 0 0-3.603.333c-.202.04-.424.1-.666.182-.242.08-.464.161-.666.242.04.161.091.333.152.514.06.182.11.354.151.515.161.605.212 1.2.151 1.786-.06.585-.292 1.14-.696 1.665a7.528 7.528 0 0 1-2.089 1.847 8.644 8.644 0 0 1-2.573.999c-.444.121-.828.05-1.15-.212-.323-.262-.505-.616-.545-1.06a2.773 2.773 0 0 1 0-.817c.04-.262.1-.535.181-.817a6.7 6.7 0 0 1 .848-1.696 14.32 14.32 0 0 1 1.21-1.513l.606-.606c.202-.202.424-.403.666-.605a10.798 10.798 0 0 1-1.06-2.301 21.429 21.429 0 0 1-.635-2.422l-.09.09c-.021.021-.031.051-.031.092a56.485 56.485 0 0 1-1.544 2.876 30.574 30.574 0 0 1-1.786 2.755 4.26 4.26 0 0 0-.091.302.558.558 0 0 0 .03.303c.081.242.172.484.273.727.1.242.171.484.212.726.201.929.161 1.786-.121 2.573-.283.787-.808 1.464-1.575 2.029a8.466 8.466 0 0 1-1.907 1.06 6.8 6.8 0 0 1-2.15.453c-.201.04-.413.05-.635.03a9.442 9.442 0 0 1-.696-.09.747.747 0 0 1-.545-.363.831.831 0 0 1-.121-.606c.04-.121.08-.232.12-.333.041-.1.081-.212.122-.333.08-.161.181-.313.303-.454a8.94 8.94 0 0 0 .363-.454 744.162 744.162 0 0 1 3.27-3.996c.12-.162.191-.303.211-.424.02-.121-.03-.283-.151-.484a32.863 32.863 0 0 1-.575-1.211 8.62 8.62 0 0 1-.454-1.272 22.431 22.431 0 0 1-.333-1.09 16.095 16.095 0 0 1-.273-1.15l-.09.182a.42.42 0 0 0-.03.181 60.74 60.74 0 0 0-1.272 2.846 60.74 60.74 0 0 1-1.272 2.846 50.483 50.483 0 0 1-1.302 2.543c-.464.847-.938 1.695-1.422 2.543a4.396 4.396 0 0 1-.576.877 5.67 5.67 0 0 1-.696.697 3.557 3.557 0 0 1-.545.333c-.202.1-.424.13-.666.09a1.305 1.305 0 0 1-.787-.363 2.173 2.173 0 0 1-.484-.787 4.26 4.26 0 0 1-.243-1.03 4.92 4.92 0 0 1 0-1.089c0-.242.01-.484.03-.727.02-.242.051-.504.092-.787a.7.7 0 0 1-.091.152c-.02.02-.03.05-.03.09a62.348 62.348 0 0 1-1.575 3.391c-.08.202-.192.404-.333.606-.141.201-.292.403-.454.605-.404.525-.969.787-1.695.787-.727 0-1.272-.282-1.635-.847a6.591 6.591 0 0 1-1.06-2.09 12.54 12.54 0 0 1-.454-2.33c-.04-.767 0-1.514.121-2.24.122-.727.283-1.454.485-2.18 0-.081.02-.172.06-.273.04-.1.081-.212.121-.333h-.06a27.37 27.37 0 0 0-1.665.908c-.545.323-1.1.646-1.665.97.04.12.08.221.12.302l.122.242c0 .08.02.162.06.242.04.081.061.162.061.243.283.888.424 1.786.424 2.694 0 .908-.121 1.806-.363 2.694-.283 1.251-.767 2.362-1.453 3.33a10.414 10.414 0 0 1-2.604 2.543c-.686.444-1.403.808-2.15 1.09a9.122 9.122 0 0 1-2.33.545H6.357a4.601 4.601 0 0 0-.756-.182c-.263-.04-.535-.08-.818-.12-.08-.041-.171-.092-.272-.152s-.192-.111-.273-.151a5.191 5.191 0 0 1-.666-.666 2.904 2.904 0 0 1-.484-.848c-.404-1.01-.525-1.988-.363-2.937.161-.948.524-1.867 1.09-2.755a6.818 6.818 0 0 1 1.21-1.453A40.91 40.91 0 0 1 6.48 35.59a30.913 30.913 0 0 1 2.664-1.817 39.11 39.11 0 0 1 2.845-1.574c.081-.04.172-.09.273-.151.1-.06.212-.111.333-.152a5.442 5.442 0 0 0-.364-.333 4.259 4.259 0 0 0-.363-.272 188.8 188.8 0 0 0-2.21-1.574l-2.15-1.514a37.876 37.876 0 0 1-2.451-1.907 22.227 22.227 0 0 1-2.21-2.15 15.418 15.418 0 0 1-1.211-1.786 8.916 8.916 0 0 1-.848-1.967c0-.122-.01-.243-.03-.364a.542.542 0 0 0-.152-.302v-.848c.081-.04.111-.07.091-.09-.02-.021-.01-.051.03-.092a7.47 7.47 0 0 1 .182-.878c.08-.302.162-.615.242-.938.364-.969.828-1.887 1.393-2.755a17.238 17.238 0 0 1 1.937-2.452 26.196 26.196 0 0 1 4.693-4.027A48.775 48.775 0 0 1 14.53 4.53a33.038 33.038 0 0 1 2.573-1.21 46.756 46.756 0 0 1 2.695-1.03A24.6 24.6 0 0 1 23.4 1.23a21.093 21.093 0 0 1 3.724-.454h2.059c1.05.04 2.078.172 3.087.394 1.01.222 1.978.575 2.907 1.06.646.363 1.23.777 1.756 1.24a5.48 5.48 0 0 1 1.271 1.666c.323.605.525 1.23.606 1.877a8.27 8.27 0 0 1 0 1.998 9.822 9.822 0 0 1-1.09 3.723 16.59 16.59 0 0 1-2.24 3.24 14.843 14.843 0 0 1-3.633 2.966 19.376 19.376 0 0 1-4.3 1.817 31.52 31.52 0 0 1-3.269.666c-1.09.161-2.2.222-3.33.182a12.96 12.96 0 0 1-2.21-.303 6.572 6.572 0 0 1-2.028-.848 6.026 6.026 0 0 1-.908-.696 3.76 3.76 0 0 1-.727-.939 2.44 2.44 0 0 1-.212-.393 2.995 2.995 0 0 1-.151-.454.413.413 0 0 1-.03-.273c.02-.1.07-.171.151-.212.121-.04.212-.04.272 0 .061.04.111.081.152.121.282.364.605.656.969.878a7.65 7.65 0 0 0 1.15.576 7.496 7.496 0 0 0 1.937.454c.646.06 1.292.07 1.938.03a23.56 23.56 0 0 0 2.392-.363 16.084 16.084 0 0 0 2.33-.666 17.711 17.711 0 0 0 3.755-1.756 15.434 15.434 0 0 0 3.209-2.664 10.727 10.727 0 0 0 1.574-1.998 8.092 8.092 0 0 0 .968-2.362c.081-.403.122-.817.122-1.24 0-.425-.061-.859-.182-1.303a2.819 2.819 0 0 0-.696-1.029 5.06 5.06 0 0 0-1-.726 6.186 6.186 0 0 0-1.513-.636 8.642 8.642 0 0 0-1.635-.273 17.007 17.007 0 0 0-4.178.03 25.505 25.505 0 0 0-4.056.878 31.797 31.797 0 0 0-3.784 1.454 68.564 68.564 0 0 0-3.663 1.816c-.848.484-1.676.989-2.483 1.514a31.622 31.622 0 0 0-2.361 1.695 43.916 43.916 0 0 0-1.998 1.877 11.26 11.26 0 0 0-1.696 2.18 8.303 8.303 0 0 0-.847 1.937 6.23 6.23 0 0 0-.242 2.12c.04.564.15 1.1.333 1.604.181.504.434.999.756 1.483.444.606.949 1.17 1.514 1.695.565.525 1.13 1.01 1.695 1.454.687.565 1.363 1.11 2.029 1.634.666.525 1.322 1.05 1.967 1.575.202.201.404.393.606.575.202.181.404.373.605.575a9.961 9.961 0 0 0 1.575-.848 71.931 71.931 0 0 0 4.238-2.3.811.811 0 0 0 .212-.152l.151-.151a12.077 12.077 0 0 1 1.786-1.877 7.969 7.969 0 0 1 2.21-1.332 3.557 3.557 0 0 1 1.271-.242c.445 0 .828.12 1.151.363.323.242.545.585.666 1.03.08.322.121.665.121 1.029 0 .363-.02.726-.06 1.09 0 .04-.01.09-.03.15a.67.67 0 0 0-.03.213c.04-.04.08-.071.12-.091a.27.27 0 0 1 .121-.03c.202-.202.475-.283.818-.243.343.04.615.182.817.424a.55.55 0 0 1 .182.394c0 .141-.02.292-.06.454-.122.484-.243.959-.364 1.423-.121.464-.242.938-.363 1.423a26 26 0 0 0-.424 1.695l-.363 1.695c-.04.202-.05.404-.03.606.02.201.03.403.03.605v.121c0 .04.02.08.06.121a.949.949 0 0 0 .182-.242c.04-.08.1-.161.181-.242.162-.283.323-.585.485-.908.161-.323.303-.646.424-.969l4.117-9.203c.161-.363.303-.747.424-1.15l.363-1.211c.04-.122.09-.233.151-.333.06-.101.172-.172.333-.212a6.444 6.444 0 0 1 1.272-.243c.444-.04.888-.02 1.332.061.04 0 .1.02.181.06l.243.122c.161.08.252.161.272.242.02.08.01.202-.03.363a18.33 18.33 0 0 0-.606 1.938 5.92 5.92 0 0 0-.09 1.332c.02.444.07.888.15 1.332.041.403.142.777.304 1.12.161.343.343.696.545 1.06.04-.081.09-.172.15-.273.061-.101.132-.192.213-.273.484-.888.969-1.766 1.453-2.633.484-.868.949-1.766 1.393-2.695a5.51 5.51 0 0 0 .393-1.06c.101-.383.212-.776.333-1.18.04-.08.07-.161.09-.242.021-.08.051-.182.092-.303 0-.161.05-.282.151-.363.101-.08.232-.141.394-.182a6.43 6.43 0 0 1 1.24-.242c.425-.04.838-.02 1.242.06.08 0 .151.01.212.03.06.021.131.051.212.092.161.08.262.171.303.272.04.101.04.252 0 .454-.121.364-.232.717-.333 1.06-.101.343-.192.696-.273 1.06-.08.363-.11.726-.09 1.09.02.362.05.746.09 1.15.08.524.232 1.009.454 1.453.222.444.434.908.636 1.392.04.04.08.091.121.152.04.06.06.11.06.151.243-.08.465-.172.667-.272.201-.101.423-.192.666-.273a15.616 15.616 0 0 1 4.722-.726c.97.04 1.918.201 2.846.484a7.146 7.146 0 0 1 2.543 1.392 7.217 7.217 0 0 1 1.695 1.817c.444.686.727 1.473.848 2.361zm-47.227 3.27c.04-.444.03-.888-.03-1.332-.06-.444-.151-.888-.272-1.332l-.03.03c-.02.02-.051.03-.091.03-.767.444-1.524.919-2.27 1.423a40.864 40.864 0 0 0-2.21 1.605 17.2 17.2 0 0 0-1.272 1.15 5.933 5.933 0 0 0-1.03 1.393 6.95 6.95 0 0 0-.514 1.18 4.09 4.09 0 0 0-.212 1.302c0 .283.05.545.151.787.101.242.313.444.636.606.202.08.414.12.636.12.222 0 .434-.02.635-.06a4.915 4.915 0 0 0 1.696-.545 7.293 7.293 0 0 0 1.453-1.03 7.872 7.872 0 0 0 1.907-2.36c.464-.888.737-1.877.817-2.967zm12.17-9.385c.04-.202.01-.343-.09-.424-.101-.08-.253-.1-.455-.06-.161.04-.302.09-.423.151-.122.06-.243.131-.364.212a3.518 3.518 0 0 0-.999.878 20.08 20.08 0 0 0-.757 1.06 13.7 13.7 0 0 0-1.332 2.875 9.982 9.982 0 0 0-.484 3.119v.484c0 .161.02.303.06.424.041.242.091.474.152.696.06.222.131.434.212.636.08.202.182.303.303.303.12 0 .242-.061.363-.182l.182-.182a3.13 3.13 0 0 1 .302-.575c.121-.182.242-.373.364-.575a91.11 91.11 0 0 0 1.362-3.36c.424-1.11.817-2.25 1.18-3.421.081-.323.162-.656.243-1 .08-.343.141-.696.181-1.059zm8.356 10.596c.444.202 1.07-.162 1.877-1.09.807-.929 1.17-1.716 1.09-2.361l-1.484 1.725c-.504.585-.999 1.16-1.483 1.726zm9.506-2.362a3.038 3.038 0 0 0 1.453-1.634 2.908 2.908 0 0 0 0-2.18h-.06a6.664 6.664 0 0 0-1.393 1.635 8.049 8.049 0 0 0-.848 1.998c-.04.04-.06.09-.06.151v.212c0 .08.02.141.06.182.04.04.1.04.182 0 .12-.081.242-.142.363-.182a.76.76 0 0 0 .303-.182z"/></svg>