<svg width="27.857" height="27.857" viewBox="0.000000 -51.428571 27.857143 27.857143" xmlns="http://www.w3.org/2000/svg"><path d="M19.286-39.643c0-2.065-.734-3.83-2.202-5.298-1.467-1.468-3.234-2.202-5.298-2.202-2.065 0-3.831.734-5.299 2.202-1.467 1.467-2.201 3.233-2.201 5.298s.734 3.831 2.201 5.299c1.468 1.467 3.234 2.201 5.299 2.201 2.064 0 3.83-.734 5.298-2.201 1.468-1.468 2.202-3.234 2.202-5.299zm8.571 13.929a2.06 2.06 0 0 1-.636 1.506 2.06 2.06 0 0 1-1.507.637c-.602 0-1.105-.212-1.506-.637l-5.743-5.725c-1.997 1.384-4.224 2.076-6.68 2.076a11.58 11.58 0 0 1-4.578-.93c-1.456-.619-2.712-1.456-3.767-2.51-1.054-1.055-1.891-2.31-2.51-3.767A11.58 11.58 0 0 1 0-39.643c0-1.596.31-3.122.93-4.579.619-1.456 1.456-2.712 2.51-3.766 1.055-1.055 2.31-1.892 3.767-2.511a11.58 11.58 0 0 1 4.579-.93c1.596 0 3.122.31 4.578.93 1.457.619 2.712 1.456 3.767 2.51 1.055 1.055 1.892 2.311 2.511 3.767.62 1.457.93 2.983.93 4.58 0 2.455-.693 4.681-2.076 6.679l5.742 5.742c.413.413.62.915.62 1.507zm0 0"/></svg>