<svg xmlns="http://www.w3.org/2000/svg" width="63" height="52" viewBox="0 0 63 52"><path fill="#333" fill-rule="evenodd" d="M6.507 20.429l19.12 20.41-9.207-20.41H6.507zm24.922 23.694L42.14 20.429H20.717L31.43 44.123zM16.512 16.5l6.261-11.786h-8.04L5.892 16.5h10.62zM37.23 40.839l19.122-20.41h-9.914l-9.208 20.41zM20.963 16.5h20.932L35.633 4.714h-8.41L20.964 16.5zm25.382 0h10.62l-8.84-11.786h-8.041l6.26 11.786zm4.327-14.916l11.786 15.714c.583.737.522 1.81-.123 2.517L32.871 51.243c-.368.4-.89.614-1.442.614a1.947 1.947 0 0 1-1.443-.614L.522 19.815c-.645-.706-.706-1.78-.123-2.517L12.185 1.584A1.893 1.893 0 0 1 13.75.786h35.357c.614 0 1.197.276 1.565.798z"/></svg>